<mxfile host="app.diagrams.net" agent="Mozilla/5.0 (X11; Ubuntu; Linux x86_64; rv:132.0) Gecko/20100101 Firefox/132.0" version="26.0.9">
  <diagram name="Page-1" id="SwMLdpvHSJ4qiiwMHS9A">
    <mxGraphModel dx="2455" dy="2035" grid="1" gridSize="10" guides="1" tooltips="1" connect="1" arrows="1" fold="1" page="1" pageScale="1" pageWidth="850" pageHeight="1100" math="0" shadow="0">
      <root>
        <mxCell id="0" />
        <mxCell id="1" parent="0" />
        <mxCell id="4TrzF8Q___XAww_qpmV2-3" value="" style="edgeStyle=orthogonalEdgeStyle;rounded=0;orthogonalLoop=1;jettySize=auto;html=1;" edge="1" parent="1" source="4TrzF8Q___XAww_qpmV2-1" target="4TrzF8Q___XAww_qpmV2-2">
          <mxGeometry relative="1" as="geometry" />
        </mxCell>
        <mxCell id="4TrzF8Q___XAww_qpmV2-1" value="start" style="ellipse;whiteSpace=wrap;html=1;" vertex="1" parent="1">
          <mxGeometry x="330" y="-80" width="120" height="80" as="geometry" />
        </mxCell>
        <mxCell id="4TrzF8Q___XAww_qpmV2-5" value="" style="edgeStyle=orthogonalEdgeStyle;rounded=0;orthogonalLoop=1;jettySize=auto;html=1;" edge="1" parent="1" source="4TrzF8Q___XAww_qpmV2-2" target="4TrzF8Q___XAww_qpmV2-4">
          <mxGeometry relative="1" as="geometry" />
        </mxCell>
        <mxCell id="4TrzF8Q___XAww_qpmV2-38" value="false" style="edgeLabel;html=1;align=center;verticalAlign=middle;resizable=0;points=[];" vertex="1" connectable="0" parent="4TrzF8Q___XAww_qpmV2-5">
          <mxGeometry x="-0.6105" y="-3" relative="1" as="geometry">
            <mxPoint as="offset" />
          </mxGeometry>
        </mxCell>
        <mxCell id="4TrzF8Q___XAww_qpmV2-26" value="" style="edgeStyle=orthogonalEdgeStyle;rounded=0;orthogonalLoop=1;jettySize=auto;html=1;" edge="1" parent="1" source="4TrzF8Q___XAww_qpmV2-2" target="4TrzF8Q___XAww_qpmV2-25">
          <mxGeometry relative="1" as="geometry" />
        </mxCell>
        <mxCell id="4TrzF8Q___XAww_qpmV2-39" value="true" style="edgeLabel;html=1;align=center;verticalAlign=middle;resizable=0;points=[];" vertex="1" connectable="0" parent="4TrzF8Q___XAww_qpmV2-26">
          <mxGeometry x="-0.2765" y="-5" relative="1" as="geometry">
            <mxPoint as="offset" />
          </mxGeometry>
        </mxCell>
        <mxCell id="4TrzF8Q___XAww_qpmV2-2" value="&lt;div&gt;pt == 100 or &lt;br&gt;&lt;/div&gt;&lt;div&gt;pt &amp;lt;= 0 &lt;br&gt;&lt;/div&gt;" style="rhombus;whiteSpace=wrap;html=1;" vertex="1" parent="1">
          <mxGeometry x="330" y="200" width="120" height="80" as="geometry" />
        </mxCell>
        <mxCell id="4TrzF8Q___XAww_qpmV2-7" value="" style="edgeStyle=orthogonalEdgeStyle;rounded=0;orthogonalLoop=1;jettySize=auto;html=1;" edge="1" parent="1" source="4TrzF8Q___XAww_qpmV2-4" target="4TrzF8Q___XAww_qpmV2-6">
          <mxGeometry relative="1" as="geometry" />
        </mxCell>
        <mxCell id="4TrzF8Q___XAww_qpmV2-4" value="read d1" style="shape=parallelogram;perimeter=parallelogramPerimeter;whiteSpace=wrap;html=1;fixedSize=1;" vertex="1" parent="1">
          <mxGeometry x="330" y="310" width="120" height="60" as="geometry" />
        </mxCell>
        <mxCell id="4TrzF8Q___XAww_qpmV2-9" value="" style="edgeStyle=orthogonalEdgeStyle;rounded=0;orthogonalLoop=1;jettySize=auto;html=1;" edge="1" parent="1" source="4TrzF8Q___XAww_qpmV2-6" target="4TrzF8Q___XAww_qpmV2-8">
          <mxGeometry relative="1" as="geometry" />
        </mxCell>
        <mxCell id="4TrzF8Q___XAww_qpmV2-6" value="read d2" style="shape=parallelogram;perimeter=parallelogramPerimeter;whiteSpace=wrap;html=1;fixedSize=1;" vertex="1" parent="1">
          <mxGeometry x="330" y="410" width="120" height="60" as="geometry" />
        </mxCell>
        <mxCell id="4TrzF8Q___XAww_qpmV2-11" value="" style="edgeStyle=orthogonalEdgeStyle;rounded=0;orthogonalLoop=1;jettySize=auto;html=1;" edge="1" parent="1" source="4TrzF8Q___XAww_qpmV2-8" target="4TrzF8Q___XAww_qpmV2-10">
          <mxGeometry relative="1" as="geometry" />
        </mxCell>
        <mxCell id="4TrzF8Q___XAww_qpmV2-8" value="sum = d1 + d2" style="whiteSpace=wrap;html=1;" vertex="1" parent="1">
          <mxGeometry x="330" y="500" width="120" height="60" as="geometry" />
        </mxCell>
        <mxCell id="4TrzF8Q___XAww_qpmV2-14" value="" style="edgeStyle=orthogonalEdgeStyle;rounded=0;orthogonalLoop=1;jettySize=auto;html=1;" edge="1" parent="1" source="4TrzF8Q___XAww_qpmV2-10" target="4TrzF8Q___XAww_qpmV2-13">
          <mxGeometry relative="1" as="geometry" />
        </mxCell>
        <mxCell id="4TrzF8Q___XAww_qpmV2-17" value="true" style="edgeLabel;html=1;align=center;verticalAlign=middle;resizable=0;points=[];" vertex="1" connectable="0" parent="4TrzF8Q___XAww_qpmV2-14">
          <mxGeometry x="-0.225" y="-1" relative="1" as="geometry">
            <mxPoint as="offset" />
          </mxGeometry>
        </mxCell>
        <mxCell id="4TrzF8Q___XAww_qpmV2-19" value="" style="edgeStyle=orthogonalEdgeStyle;rounded=0;orthogonalLoop=1;jettySize=auto;html=1;" edge="1" parent="1" source="4TrzF8Q___XAww_qpmV2-10" target="4TrzF8Q___XAww_qpmV2-18">
          <mxGeometry relative="1" as="geometry" />
        </mxCell>
        <mxCell id="4TrzF8Q___XAww_qpmV2-22" value="false" style="edgeLabel;html=1;align=center;verticalAlign=middle;resizable=0;points=[];" vertex="1" connectable="0" parent="4TrzF8Q___XAww_qpmV2-19">
          <mxGeometry x="0.24" y="2" relative="1" as="geometry">
            <mxPoint as="offset" />
          </mxGeometry>
        </mxCell>
        <mxCell id="4TrzF8Q___XAww_qpmV2-10" value="&lt;div&gt;d1 % 2 == 0 &lt;br&gt;&lt;/div&gt;&lt;div&gt;and&lt;/div&gt;&lt;div&gt;&amp;nbsp;d2 % 2 == 0&lt;/div&gt;&lt;div&gt;and sum &amp;gt; 8 &lt;br&gt;&lt;/div&gt;" style="rhombus;whiteSpace=wrap;html=1;" vertex="1" parent="1">
          <mxGeometry x="330" y="600" width="120" height="110" as="geometry" />
        </mxCell>
        <mxCell id="4TrzF8Q___XAww_qpmV2-16" value="" style="edgeStyle=orthogonalEdgeStyle;rounded=0;orthogonalLoop=1;jettySize=auto;html=1;" edge="1" parent="1" source="4TrzF8Q___XAww_qpmV2-13" target="4TrzF8Q___XAww_qpmV2-15">
          <mxGeometry relative="1" as="geometry" />
        </mxCell>
        <mxCell id="4TrzF8Q___XAww_qpmV2-13" value="pt = 100" style="whiteSpace=wrap;html=1;" vertex="1" parent="1">
          <mxGeometry x="530" y="625" width="120" height="60" as="geometry" />
        </mxCell>
        <mxCell id="4TrzF8Q___XAww_qpmV2-27" style="edgeStyle=orthogonalEdgeStyle;rounded=0;orthogonalLoop=1;jettySize=auto;html=1;" edge="1" parent="1" source="4TrzF8Q___XAww_qpmV2-15">
          <mxGeometry relative="1" as="geometry">
            <mxPoint x="50" y="230" as="targetPoint" />
            <Array as="points">
              <mxPoint x="590" y="960" />
              <mxPoint x="-120" y="960" />
              <mxPoint x="-120" y="230" />
            </Array>
          </mxGeometry>
        </mxCell>
        <mxCell id="4TrzF8Q___XAww_qpmV2-15" value="write pt" style="shape=parallelogram;perimeter=parallelogramPerimeter;whiteSpace=wrap;html=1;fixedSize=1;" vertex="1" parent="1">
          <mxGeometry x="530" y="710" width="120" height="60" as="geometry" />
        </mxCell>
        <mxCell id="4TrzF8Q___XAww_qpmV2-21" value="" style="edgeStyle=orthogonalEdgeStyle;rounded=0;orthogonalLoop=1;jettySize=auto;html=1;" edge="1" parent="1" source="4TrzF8Q___XAww_qpmV2-18" target="4TrzF8Q___XAww_qpmV2-20">
          <mxGeometry relative="1" as="geometry" />
        </mxCell>
        <mxCell id="4TrzF8Q___XAww_qpmV2-23" value="true" style="edgeLabel;html=1;align=center;verticalAlign=middle;resizable=0;points=[];" vertex="1" connectable="0" parent="4TrzF8Q___XAww_qpmV2-21">
          <mxGeometry x="-0.2" y="-1" relative="1" as="geometry">
            <mxPoint as="offset" />
          </mxGeometry>
        </mxCell>
        <mxCell id="4TrzF8Q___XAww_qpmV2-34" value="" style="edgeStyle=orthogonalEdgeStyle;rounded=0;orthogonalLoop=1;jettySize=auto;html=1;" edge="1" parent="1" source="4TrzF8Q___XAww_qpmV2-18" target="4TrzF8Q___XAww_qpmV2-33">
          <mxGeometry relative="1" as="geometry" />
        </mxCell>
        <mxCell id="4TrzF8Q___XAww_qpmV2-40" value="false" style="edgeLabel;html=1;align=center;verticalAlign=middle;resizable=0;points=[];" vertex="1" connectable="0" parent="4TrzF8Q___XAww_qpmV2-34">
          <mxGeometry x="-0.3088" y="3" relative="1" as="geometry">
            <mxPoint as="offset" />
          </mxGeometry>
        </mxCell>
        <mxCell id="4TrzF8Q___XAww_qpmV2-18" value="&lt;div&gt;d1 == 6 &lt;br&gt;&lt;/div&gt;&lt;div&gt;or &lt;br&gt;&lt;/div&gt;&lt;div&gt;d2 == 6&lt;/div&gt;&lt;div&gt;or&lt;/div&gt;&lt;div&gt;sum == 7&lt;br&gt;&lt;/div&gt;" style="rhombus;whiteSpace=wrap;html=1;" vertex="1" parent="1">
          <mxGeometry x="120" y="590" width="110" height="130" as="geometry" />
        </mxCell>
        <mxCell id="4TrzF8Q___XAww_qpmV2-29" value="" style="edgeStyle=orthogonalEdgeStyle;rounded=0;orthogonalLoop=1;jettySize=auto;html=1;" edge="1" parent="1" source="4TrzF8Q___XAww_qpmV2-20" target="4TrzF8Q___XAww_qpmV2-28">
          <mxGeometry relative="1" as="geometry" />
        </mxCell>
        <mxCell id="4TrzF8Q___XAww_qpmV2-20" value="pt = pt + 10" style="whiteSpace=wrap;html=1;" vertex="1" parent="1">
          <mxGeometry x="115" y="760" width="120" height="60" as="geometry" />
        </mxCell>
        <mxCell id="4TrzF8Q___XAww_qpmV2-24" value="pt = 0 " style="rounded=0;whiteSpace=wrap;html=1;" vertex="1" parent="1">
          <mxGeometry x="330" y="80" width="120" height="60" as="geometry" />
        </mxCell>
        <mxCell id="4TrzF8Q___XAww_qpmV2-25" value="end" style="ellipse;whiteSpace=wrap;html=1;" vertex="1" parent="1">
          <mxGeometry x="550" y="200" width="80" height="80" as="geometry" />
        </mxCell>
        <mxCell id="4TrzF8Q___XAww_qpmV2-32" style="edgeStyle=orthogonalEdgeStyle;rounded=0;orthogonalLoop=1;jettySize=auto;html=1;" edge="1" parent="1" source="4TrzF8Q___XAww_qpmV2-28">
          <mxGeometry relative="1" as="geometry">
            <mxPoint x="-120" y="860" as="targetPoint" />
          </mxGeometry>
        </mxCell>
        <mxCell id="4TrzF8Q___XAww_qpmV2-28" value="write pt " style="shape=parallelogram;perimeter=parallelogramPerimeter;whiteSpace=wrap;html=1;fixedSize=1;" vertex="1" parent="1">
          <mxGeometry x="115" y="830" width="120" height="60" as="geometry" />
        </mxCell>
        <mxCell id="4TrzF8Q___XAww_qpmV2-30" value="write vittoria" style="shape=parallelogram;perimeter=parallelogramPerimeter;whiteSpace=wrap;html=1;fixedSize=1;" vertex="1" parent="1">
          <mxGeometry x="520" y="800" width="120" height="60" as="geometry" />
        </mxCell>
        <mxCell id="4TrzF8Q___XAww_qpmV2-31" value="" style="endArrow=classic;html=1;rounded=0;" edge="1" parent="1">
          <mxGeometry width="50" height="50" relative="1" as="geometry">
            <mxPoint x="50" y="230" as="sourcePoint" />
            <mxPoint x="332.535211267606" y="230.30985915492965" as="targetPoint" />
          </mxGeometry>
        </mxCell>
        <mxCell id="4TrzF8Q___XAww_qpmV2-36" value="" style="edgeStyle=orthogonalEdgeStyle;rounded=0;orthogonalLoop=1;jettySize=auto;html=1;" edge="1" parent="1" source="4TrzF8Q___XAww_qpmV2-33" target="4TrzF8Q___XAww_qpmV2-35">
          <mxGeometry relative="1" as="geometry" />
        </mxCell>
        <mxCell id="4TrzF8Q___XAww_qpmV2-33" value="pt = 0" style="whiteSpace=wrap;html=1;" vertex="1" parent="1">
          <mxGeometry x="-40" y="625" width="120" height="60" as="geometry" />
        </mxCell>
        <mxCell id="4TrzF8Q___XAww_qpmV2-37" style="edgeStyle=orthogonalEdgeStyle;rounded=0;orthogonalLoop=1;jettySize=auto;html=1;" edge="1" parent="1" source="4TrzF8Q___XAww_qpmV2-35">
          <mxGeometry relative="1" as="geometry">
            <mxPoint x="-120" y="740" as="targetPoint" />
          </mxGeometry>
        </mxCell>
        <mxCell id="4TrzF8Q___XAww_qpmV2-35" value="hai perso" style="shape=parallelogram;perimeter=parallelogramPerimeter;whiteSpace=wrap;html=1;fixedSize=1;" vertex="1" parent="1">
          <mxGeometry x="-40" y="710" width="120" height="60" as="geometry" />
        </mxCell>
      </root>
    </mxGraphModel>
  </diagram>
</mxfile>
